<?xml version="1.0" standalone="no"?><!DOCTYPE svg PUBLIC "-//W3C//DTD SVG 1.1//EN" "http://www.w3.org/Graphics/SVG/1.1/DTD/svg11.dtd"><svg viewBox="0 0 32 32" role="presentation" class="icon" version="1.1" xmlns="http://www.w3.org/2000/svg" xmlns:xlink="http://www.w3.org/1999/xlink"><defs xmlns="http://www.w3.org/1999/xhtml"><style type="text/css"><![CDATA[
.__web-inspector-hide-shortcut__, .__web-inspector-hide-shortcut__ *, .__web-inspector-hidebefore-shortcut__::before, .__web-inspector-hideafter-shortcut__::after { visibility: hidden !important; }]]></style></defs>
			<title>Support</title>
			<path fill-rule="evenodd" d="M29.3,10.2h-7.5V2.7c0-1.5-1.2-2.7-2.7-2.7h-6.3c-1.5,0-2.7,1.2-2.7,2.7v7.5H2.7&#10;&#9;&#9;c-1.5,0-2.7,1.2-2.7,2.7v6.3c0,1.5,1.2,2.7,2.7,2.7h7.5v7.5c0,1.5,1.2,2.7,2.7,2.7h6.3c1.5,0,2.7-1.2,2.7-2.7v-7.5h7.5&#10;&#9;&#9;c1.5,0,2.7-1.2,2.7-2.7v-6.3C32,11.4,30.8,10.2,29.3,10.2z"/>
		</svg>