<?xml version="1.0" standalone="no"?><!DOCTYPE svg PUBLIC "-//W3C//DTD SVG 1.1//EN" "http://www.w3.org/Graphics/SVG/1.1/DTD/svg11.dtd"><svg viewBox="0 0 32 32" role="presentation" class="icon" version="1.1" xmlns="http://www.w3.org/2000/svg" xmlns:xlink="http://www.w3.org/1999/xlink"><defs xmlns="http://www.w3.org/1999/xhtml"><style type="text/css"><![CDATA[
.__web-inspector-hide-shortcut__, .__web-inspector-hide-shortcut__ *, .__web-inspector-hidebefore-shortcut__::before, .__web-inspector-hideafter-shortcut__::after { visibility: hidden !important; }]]></style></defs>
			<title>Tank</title>
			<path d="M29,10.7c0,2.1,0,4.1,0,6.2c0,0.6-0.1,1.1-0.4,1.6c-2.9,5.3-6.8,9.7-11.8,13.2c-0.6,0.4-1,0.4-1.6,0&#10;&#9;&#9;c-4.9-3.4-8.8-7.8-11.7-13c-0.3-0.6-0.4-1.2-0.4-1.8c0-3.9,0.1-7.8,0-11.7C3,2.3,5.2,1.9,7.1,1.4C10.4,0.6,13.3,0,16.6,0&#10;&#9;&#9;c3.1,0,7.7,1.1,9.4,1.6c1.3,0.4,2.7,0.9,2.9,2.2C29,4.9,28.9,6,29,7.1C29,8.3,29,9.5,29,10.7C29,10.7,29,10.7,29,10.7z"/>
		</svg>